<svg xmlns="http://www.w3.org/2000/svg" xmlns:xlink="http://www.w3.org/1999/xlink" version="1.1" width="256" height="256" viewBox="0 0 256 256" xml:space="preserve">
<desc>Created with Fabric.js 1.7.22</desc>
<defs>
</defs>
<g transform="translate(128 128) scale(0.72 0.72)" style="">
	<g style="stroke: none; stroke-width: 0; stroke-dasharray: none; stroke-linecap: butt; stroke-linejoin: miter; stroke-miterlimit: 10; fill: #ffffff; fill-rule: nonzero; opacity: 1;" transform="translate(-175.05 -175.05000000000004) scale(3.89 3.89)" >
	<path d="M 83.818 34.7 L 46.988 0.776 c -1.123 -1.035 -2.854 -1.035 -3.976 0 L 6.182 34.7 c -1.192 1.098 -1.269 2.955 -0.171 4.147 c 1.097 1.193 2.955 1.269 4.147 0.171 l 0.515 -0.475 v 48.523 c 0 1.621 1.314 2.935 2.935 2.935 h 17.4 c 1.621 0 2.935 -1.314 2.935 -2.935 v -30.27 c 0 -6.097 4.961 -11.058 11.058 -11.058 c 6.097 0 11.058 4.961 11.058 11.058 v 30.27 c 0 1.621 1.314 2.935 2.935 2.935 h 17.4 c 1.621 0 2.935 -1.314 2.935 -2.935 V 38.543 l 0.515 0.474 c 0.564 0.52 1.276 0.776 1.987 0.776 c 0.792 0 1.581 -0.319 2.16 -0.946 C 85.087 37.655 85.011 35.798 83.818 34.7 z M 73.458 84.13 h -11.53 V 56.795 c 0 -9.334 -7.594 -16.928 -16.928 -16.928 c -9.334 0 -16.928 7.594 -16.928 16.928 V 84.13 h -11.53 V 33.136 L 45 6.925 l 28.458 26.212 V 84.13 z" style="stroke: none; stroke-width: 1; stroke-dasharray: none; stroke-linecap: butt; stroke-linejoin: miter; stroke-miterlimit: 10; fill: rgb(255,255,255); fill-rule: nonzero; opacity: 1;" transform=" matrix(1 0 0 1 0 0) " stroke-linecap="round" />
</g>
</g>
</svg>