<svg xmlns="http://www.w3.org/2000/svg" xmlns:xlink="http://www.w3.org/1999/xlink" version="1.1" width="256" height="256" viewBox="0 0 256 256" xml:space="preserve">
<desc>Created with Fabric.js 1.7.22</desc>
<defs>
</defs>
<g transform="translate(128 128) scale(0.72 0.72)" style="">
	<g style="stroke: none; stroke-width: 0; stroke-dasharray: none; stroke-linecap: butt; stroke-linejoin: miter; stroke-miterlimit: 10; fill: none; fill-rule: nonzero; opacity: 1;" transform="translate(-175.05 -175.05000000000004) scale(3.89 3.89)" >
	<path d="M 56.641 90 H 19.2 c -2.219 0 -4.024 -1.805 -4.024 -4.023 V 4.024 C 15.176 1.805 16.981 0 19.2 0 h 51.6 c 2.219 0 4.023 1.805 4.023 4.024 v 69.128 c 0 1.104 -0.896 2 -2 2 s -2 -0.896 -2 -2 V 4.024 L 19.2 4 l -0.024 81.977 L 56.641 86 c 1.104 0 2 0.896 2 2 S 57.745 90 56.641 90 z" style="stroke: none; stroke-width: 1; stroke-dasharray: none; stroke-linecap: butt; stroke-linejoin: miter; stroke-miterlimit: 10; fill: rgb(255,255,255); fill-rule: nonzero; opacity: 1;" transform=" matrix(1 0 0 1 0 0) " stroke-linecap="round" />
	<path d="M 66.972 89.774 c -1.353 0 -2.624 -0.527 -3.581 -1.484 L 50.955 75.854 c -0.923 -0.923 -1.612 -2.071 -1.994 -3.319 l -1.993 -6.521 c -0.335 -1.099 -0.039 -2.285 0.773 -3.097 c 0.813 -0.811 2 -1.106 3.097 -0.773 l 6.522 1.993 c 1.247 0.382 2.395 1.071 3.317 1.994 l 12.437 12.436 c 1.975 1.976 1.974 5.188 0 7.162 l -2.562 2.561 C 69.597 89.247 68.325 89.774 66.972 89.774 z M 51.289 66.465 l 1.498 4.901 c 0.19 0.625 0.535 1.198 0.996 1.66 l 12.436 12.436 c 0.402 0.402 1.104 0.402 1.505 0 l 2.563 -2.561 c 0.415 -0.415 0.414 -1.091 -0.001 -1.506 L 57.85 68.96 c -0.462 -0.461 -1.035 -0.806 -1.659 -0.996 l 0 0 L 51.289 66.465 z" style="stroke: none; stroke-width: 1; stroke-dasharray: none; stroke-linecap: butt; stroke-linejoin: miter; stroke-miterlimit: 10; fill: rgb(255,255,255); fill-rule: nonzero; opacity: 1;" transform=" matrix(1 0 0 1 0 0) " stroke-linecap="round" />
	<path d="M 62.221 86.292 c -0.512 0 -1.023 -0.195 -1.414 -0.586 c -0.781 -0.78 -0.781 -2.047 0 -2.828 l 6.895 -6.896 c 0.781 -0.781 2.047 -0.781 2.828 0 c 0.781 0.78 0.781 2.047 0 2.828 l -6.895 6.896 C 63.244 86.097 62.732 86.292 62.221 86.292 z" style="stroke: none; stroke-width: 1; stroke-dasharray: none; stroke-linecap: butt; stroke-linejoin: miter; stroke-miterlimit: 10; fill: rgb(255,255,255); fill-rule: nonzero; opacity: 1;" transform=" matrix(1 0 0 1 0 0) " stroke-linecap="round" />
	<path d="M 62.528 47 H 27.472 c -1.104 0 -2 -0.896 -2 -2 s 0.896 -2 2 -2 h 35.057 c 1.104 0 2 0.896 2 2 S 63.633 47 62.528 47 z" style="stroke: none; stroke-width: 1; stroke-dasharray: none; stroke-linecap: butt; stroke-linejoin: miter; stroke-miterlimit: 10; fill: rgb(255,255,255); fill-rule: nonzero; opacity: 1;" transform=" matrix(1 0 0 1 0 0) " stroke-linecap="round" />
	<path d="M 62.528 57.117 H 27.472 c -1.104 0 -2 -0.896 -2 -2 s 0.896 -2 2 -2 h 35.057 c 1.104 0 2 0.896 2 2 S 63.633 57.117 62.528 57.117 z" style="stroke: none; stroke-width: 1; stroke-dasharray: none; stroke-linecap: butt; stroke-linejoin: miter; stroke-miterlimit: 10; fill: rgb(255,255,255); fill-rule: nonzero; opacity: 1;" transform=" matrix(1 0 0 1 0 0) " stroke-linecap="round" />
	<path d="M 37.234 67.235 h -9.762 c -1.104 0 -2 -0.896 -2 -2 s 0.896 -2 2 -2 h 9.762 c 1.104 0 2 0.896 2 2 S 38.338 67.235 37.234 67.235 z" style="stroke: none; stroke-width: 1; stroke-dasharray: none; stroke-linecap: butt; stroke-linejoin: miter; stroke-miterlimit: 10; fill: rgb(255,255,255); fill-rule: nonzero; opacity: 1;" transform=" matrix(1 0 0 1 0 0) " stroke-linecap="round" />
	<path d="M 43.558 77.353 H 27.472 c -1.104 0 -2 -0.896 -2 -2 s 0.896 -2 2 -2 h 16.086 c 1.104 0 2 0.896 2 2 S 44.662 77.353 43.558 77.353 z" style="stroke: none; stroke-width: 1; stroke-dasharray: none; stroke-linecap: butt; stroke-linejoin: miter; stroke-miterlimit: 10; fill: rgb(255,255,255); fill-rule: nonzero; opacity: 1;" transform=" matrix(1 0 0 1 0 0) " stroke-linecap="round" />
	<path d="M 45 38.409 c -7.958 0 -14.433 -6.475 -14.433 -14.433 S 37.042 9.544 45 9.544 s 14.433 6.475 14.433 14.433 S 52.958 38.409 45 38.409 z M 45 13.544 c -5.752 0 -10.433 4.68 -10.433 10.433 S 39.248 34.409 45 34.409 c 5.753 0 10.433 -4.68 10.433 -10.433 S 50.753 13.544 45 13.544 z" style="stroke: none; stroke-width: 1; stroke-dasharray: none; stroke-linecap: butt; stroke-linejoin: miter; stroke-miterlimit: 10; fill: rgb(255,255,255); fill-rule: nonzero; opacity: 1;" transform=" matrix(1 0 0 1 0 0) " stroke-linecap="round" />
	<path d="M 45 28.598 c -2.896 0 -5.251 -2.356 -5.251 -5.251 v -1.913 c 0 -2.896 2.356 -5.252 5.251 -5.252 s 5.252 2.356 5.252 5.252 v 1.913 C 50.252 26.242 47.896 28.598 45 28.598 z M 45 20.182 c -0.69 0 -1.251 0.562 -1.251 1.252 v 1.913 c 0 0.69 0.562 1.251 1.251 1.251 c 0.69 0 1.252 -0.562 1.252 -1.251 v -1.913 C 46.252 20.743 45.69 20.182 45 20.182 z" style="stroke: none; stroke-width: 1; stroke-dasharray: none; stroke-linecap: butt; stroke-linejoin: miter; stroke-miterlimit: 10; fill: rgb(255,255,255); fill-rule: nonzero; opacity: 1;" transform=" matrix(1 0 0 1 0 0) " stroke-linecap="round" />
	<path d="M 45 38.409 c -2.064 0 -4.063 -0.431 -5.941 -1.28 c -0.716 -0.324 -1.176 -1.037 -1.176 -1.822 v -3.592 c 0 -3.924 3.192 -7.117 7.117 -7.117 c 3.924 0 7.116 3.192 7.116 7.117 v 3.592 c 0 0.786 -0.46 1.499 -1.176 1.822 C 49.063 37.979 47.064 38.409 45 38.409 z M 50.116 35.307 h 0.01 H 50.116 z M 41.883 33.934 c 2.01 0.632 4.223 0.632 6.233 0 v -2.219 c 0 -1.719 -1.397 -3.117 -3.116 -3.117 s -3.117 1.398 -3.117 3.117 V 33.934 z" style="stroke: none; stroke-width: 1; stroke-dasharray: none; stroke-linecap: butt; stroke-linejoin: miter; stroke-miterlimit: 10; fill: rgb(255,255,255); fill-rule: nonzero; opacity: 1;" transform=" matrix(1 0 0 1 0 0) " stroke-linecap="round" />
</g>
</g>
</svg>